<svg width="155" height="200" viewBox="0 0 155 200" fill="none" xmlns="http://www.w3.org/2000/svg">
<path d="M39.793 1C39.793 1 35.9831 8.37232 34.9878 13.5104C32.8719 24.4344 41.0438 37.8295 47.4059 46.2727V27.5122L70.335 37.0881L79.1471 27.5122C64.2446 23.6876 55.4826 15.4966 46.6787 7.26654C44.421 5.15594 42.1605 3.04276 39.793 1Z" fill="white"/>
<path d="M121.567 13.5104C120.536 8.36741 116.679 1 116.679 1C113.198 3.76528 110.11 6.70034 107.059 9.59955C99.3954 16.8839 91.9696 23.942 79.1471 27.5122L87.6667 37.1224L110.124 27.5122V45.7011C116.199 37.204 123.692 24.1134 121.567 13.5104Z" fill="white"/>
<path d="M52.3542 52.3773C53.5501 53.7477 54.2922 54.5213 54.2922 54.5213L58.8588 49.5589L52.3542 52.3773Z" fill="white"/>
<path d="M103.091 54.5213C103.091 54.5213 103.843 53.7057 105.046 52.267L98.5262 49.3722L103.091 54.5213Z" fill="white"/>
<path d="M47.4059 54.5213L51.4084 52.7871L52.3542 52.3773C51.0953 50.9348 49.3337 48.8311 47.4059 46.2727V54.5213Z" fill="#2B2024"/>
<path d="M70.335 37.0881L47.4059 27.5122V46.2727C49.3337 48.8311 51.0953 50.9348 52.3542 52.3773L58.8588 49.5589L70.335 37.0881Z" fill="#2B2024"/>
<path d="M58.8588 49.5589L79.1471 40.7682L70.335 37.0881L58.8588 49.5589Z" fill="#2B2024"/>
<path d="M79.1471 40.7682L98.5262 49.3722L87.6667 37.1224L79.1471 40.7682Z" fill="#2B2024"/>
<path d="M98.5262 49.3722L105.046 52.267C106.341 50.7193 108.158 48.4507 110.124 45.7011V27.5122L87.6667 37.1224L98.5262 49.3722Z" fill="#2B2024"/>
<path d="M110.124 54.5213V46.2727V45.7011C108.158 48.4507 106.341 50.7193 105.046 52.267L106.218 52.7871L110.124 54.5213Z" fill="#2B2024"/>
<path d="M47.4059 54.5213V46.2727C41.0438 37.8295 32.8719 24.4344 34.9878 13.5104L10.8687 27.5122C10.8687 27.5122 5.6491 32.1643 1.34086 40.7682C-2.96739 49.3722 34.9878 144 34.9878 144H121.567C121.567 144 155.444 49.3722 153.952 40.7682C152.461 32.1643 147.49 27.5122 147.49 27.5122L121.567 13.5104C123.692 24.1134 116.199 37.204 110.124 45.7011V46.2727V54.5213L106.218 52.7871L79.1471 97.9351L51.4084 52.7871L47.4059 54.5213Z" fill="#2B2024"/>
<path d="M54.2922 54.5213L53.9314 54.8675L54.2998 55.2515L54.6602 54.8599L54.2922 54.5213ZM39.793 1L40.1196 0.621438L39.6398 0.207405L39.3488 0.770448L39.793 1ZM116.679 1L117.122 0.768084L116.841 0.232359L116.368 0.608499L116.679 1ZM121.567 13.5104L121.077 13.6087L121.567 13.5104ZM103.091 54.5213L102.717 54.853L103.084 55.2669L103.459 54.8602L103.091 54.5213ZM47.4059 27.5122L47.5986 27.0508L46.9059 26.7615V27.5122H47.4059ZM47.4059 54.5213H46.9059V55.2829L47.6047 54.9801L47.4059 54.5213ZM110.124 54.5213L109.921 54.9783L110.624 55.2904V54.5213H110.124ZM110.124 27.5122H110.624V26.7543L109.927 27.0525L110.124 27.5122ZM107.059 9.59955L106.715 9.23713L107.059 9.59955ZM46.6787 7.26654L47.0202 6.90129L46.6787 7.26654ZM79.1471 97.9351L78.7211 98.1969L79.1523 98.8987L79.576 98.1922L79.1471 97.9351ZM34.9878 144L34.5238 144.186L34.6497 144.5H34.9878V144ZM121.567 144V144.5H121.919L122.038 144.169L121.567 144ZM10.8687 27.5122L10.6177 27.0798L10.5739 27.1052L10.536 27.1389L10.8687 27.5122ZM147.49 27.5122L147.831 27.1471L147.784 27.1029L147.727 27.0722L147.49 27.5122ZM35.4787 13.6055C35.9654 11.0928 37.148 8.00674 38.2224 5.52721C38.7575 4.29223 39.2618 3.21652 39.6323 2.44973C39.8175 2.06644 39.9691 1.7606 40.0743 1.55095C40.1268 1.44613 40.1678 1.36537 40.1955 1.31102C40.2093 1.28384 40.2198 1.26327 40.2269 1.2496C40.2304 1.24276 40.233 1.23764 40.2347 1.23429C40.2356 1.23261 40.2362 1.23138 40.2366 1.23059C40.2368 1.23019 40.237 1.22991 40.2371 1.22973C40.2371 1.22965 40.2371 1.2296 40.2372 1.22956C40.2372 1.22954 40.2372 1.22955 39.793 1C39.3488 0.770448 39.3487 0.770515 39.3487 0.77061C39.3487 0.770679 39.3486 0.770802 39.3485 0.77094C39.3484 0.771216 39.3482 0.771604 39.3479 0.772104C39.3474 0.773103 39.3467 0.774548 39.3457 0.776435C39.3438 0.780208 39.3409 0.785747 39.3372 0.793015C39.3297 0.807551 39.3187 0.829004 39.3044 0.85708C39.2758 0.913231 39.2339 0.995882 39.1804 1.10268C39.0733 1.31628 38.9195 1.62654 38.7319 2.01469C38.3569 2.79077 37.8466 3.87927 37.3048 5.12963C36.2254 7.6208 35.0055 10.79 34.4969 13.4153L35.4787 13.6055ZM116.679 1C116.236 1.23192 116.236 1.23191 116.236 1.23192C116.236 1.23197 116.236 1.23201 116.236 1.2321C116.236 1.23227 116.236 1.23256 116.236 1.23295C116.237 1.23374 116.237 1.23498 116.238 1.23666C116.24 1.24001 116.243 1.24512 116.246 1.25195C116.253 1.26562 116.264 1.28618 116.278 1.31334C116.306 1.36767 116.347 1.44838 116.401 1.55314C116.507 1.76268 116.661 2.06837 116.848 2.45148C117.224 3.21792 117.735 4.29322 118.278 5.52794C119.369 8.00689 120.572 11.0932 121.077 13.6087L122.057 13.4122C121.53 10.7846 120.289 7.61574 119.194 5.12523C118.644 3.87522 118.126 2.78723 117.746 2.01155C117.556 1.62361 117.401 1.31354 117.292 1.10008C117.238 0.99335 117.195 0.910756 117.166 0.854645C117.152 0.82659 117.141 0.805153 117.133 0.790629C117.13 0.783367 117.127 0.777833 117.125 0.774063C117.124 0.772178 117.123 0.770735 117.122 0.769737C117.122 0.769238 117.122 0.76885 117.122 0.768574C117.122 0.768437 117.122 0.768314 117.122 0.768245C117.122 0.768151 117.122 0.768084 116.679 1ZM54.2922 54.5213C54.6531 54.1752 54.6531 54.1752 54.6531 54.1752C54.6531 54.1752 54.6531 54.1752 54.6531 54.1752C54.6531 54.1752 54.6531 54.1752 54.653 54.1752C54.653 54.1751 54.6529 54.175 54.6527 54.1749C54.6525 54.1746 54.652 54.1741 54.6513 54.1734C54.65 54.1721 54.648 54.1699 54.6453 54.1671C54.6399 54.1614 54.6316 54.1527 54.6206 54.1411C54.5986 54.1179 54.5655 54.083 54.522 54.0367C54.435 53.944 54.3061 53.8059 54.1399 53.625C53.8075 53.2631 53.3258 52.7303 52.7309 52.0486L51.9775 52.7061C52.5784 53.3947 53.0658 53.9339 53.4035 54.3015C53.5723 54.4853 53.7037 54.6262 53.7932 54.7214C53.8379 54.769 53.8722 54.8053 53.8954 54.8297C53.9071 54.8419 53.9159 54.8512 53.9219 54.8575C53.9249 54.8607 53.9272 54.8631 53.9288 54.8648C53.9296 54.8656 53.9302 54.8662 53.9307 54.8667C53.9309 54.8669 53.9311 54.8671 53.9312 54.8672C53.9312 54.8673 53.9313 54.8673 53.9313 54.8674C53.9314 54.8674 53.9314 54.8674 53.9314 54.8674C53.9314 54.8675 53.9314 54.8675 54.2922 54.5213ZM47.9059 54.5213V46.2727H46.9059V54.5213H47.9059ZM47.8053 45.9718C44.6361 41.7659 41.0267 36.3401 38.4742 30.6182C35.9174 24.8865 34.4493 18.92 35.4787 13.6055L34.4969 13.4153C33.4104 19.0248 34.9703 25.2178 37.561 31.0255C40.156 36.843 43.8137 42.3363 47.0066 46.5736L47.8053 45.9718ZM121.077 13.6087C122.111 18.768 120.81 24.5811 118.459 30.2025C116.112 35.815 112.743 41.1779 109.717 45.4103L110.531 45.9919C113.58 41.7272 116.995 36.2962 119.382 30.5883C121.765 24.8895 123.148 18.8558 122.057 13.4122L121.077 13.6087ZM104.663 51.9462C104.064 52.6619 103.578 53.2222 103.242 53.603C103.075 53.7933 102.944 53.9388 102.856 54.0364C102.812 54.0852 102.779 54.122 102.756 54.1465C102.745 54.1587 102.737 54.1679 102.731 54.1739C102.729 54.1769 102.726 54.1791 102.725 54.1805C102.725 54.1813 102.724 54.1818 102.724 54.1821C102.724 54.1823 102.723 54.1824 102.723 54.1824C102.723 54.1824 102.723 54.1825 102.723 54.1825C102.723 54.1825 102.723 54.1825 102.723 54.1825C102.723 54.1825 102.723 54.1825 103.091 54.5213C103.459 54.8602 103.459 54.8602 103.459 54.8602C103.459 54.8602 103.459 54.8602 103.459 54.8601C103.459 54.8601 103.459 54.86 103.459 54.86C103.459 54.8598 103.459 54.8596 103.459 54.8594C103.46 54.8589 103.46 54.8583 103.461 54.8574C103.463 54.8556 103.465 54.8531 103.468 54.8498C103.474 54.8431 103.483 54.8334 103.495 54.8205C103.519 54.7947 103.553 54.7566 103.599 54.7064C103.689 54.6061 103.822 54.4577 103.992 54.2644C104.333 53.8776 104.825 53.3108 105.43 52.5878L104.663 51.9462ZM103.465 54.1897L98.9004 49.0405L98.1521 49.7038L102.717 54.853L103.465 54.1897ZM98.7291 48.9152L79.35 40.3113L78.9442 41.2252L98.3233 49.8291L98.7291 48.9152ZM78.9483 40.3095L58.6601 49.1001L59.0576 50.0177L79.3459 41.227L78.9483 40.3095ZM58.4909 49.2204L53.9243 54.1828L54.6602 54.8599L59.2268 49.8975L58.4909 49.2204ZM116.368 0.608499C112.867 3.38972 109.763 6.33995 106.715 9.23713L107.404 9.96196C110.456 7.06073 113.529 4.14085 116.99 1.3915L116.368 0.608499ZM106.715 9.23713C99.051 16.5215 91.7041 23.4969 79.013 27.0305L79.2812 27.9938C92.2351 24.3871 99.7398 17.2464 107.404 9.96196L106.715 9.23713ZM78.7792 27.1736L69.9671 36.7495L70.703 37.4266L79.5151 27.8507L78.7792 27.1736ZM70.5277 36.6267L47.5986 27.0508L47.2133 27.9735L70.1423 37.5494L70.5277 36.6267ZM46.9059 27.5122V46.2727H47.9059V27.5122H46.9059ZM79.3398 40.3069L70.5277 36.6267L70.1423 37.5494L78.9544 41.2296L79.3398 40.3069ZM59.2268 49.8975L70.703 37.4266L69.9671 36.7495L58.4909 49.2204L59.2268 49.8975ZM98.3233 49.8291L104.844 52.724L105.249 51.81L98.7291 48.9152L98.3233 49.8291ZM52.7309 52.0486C51.4782 50.6131 49.7244 48.5188 47.8053 45.9718L47.0066 46.5736C48.943 49.1434 50.7124 51.2565 51.9775 52.7061L52.7309 52.0486ZM110.624 45.7011V27.5122H109.624V45.7011H110.624ZM52.553 52.8361L59.0576 50.0177L58.6601 49.1001L52.1554 51.9185L52.553 52.8361ZM109.717 45.4103C107.76 48.1475 105.951 50.406 104.663 51.9462L105.43 52.5878C106.731 51.0326 108.556 48.7539 110.531 45.9919L109.717 45.4103ZM78.773 27.8439L87.2926 37.4541L88.0408 36.7907L79.5213 27.1805L78.773 27.8439ZM87.8634 37.5821L110.321 27.9718L109.927 27.0525L87.47 36.6628L87.8634 37.5821ZM87.2926 37.4541L98.1521 49.7038L98.9004 49.0405L88.0408 36.7907L87.2926 37.4541ZM87.47 36.6628L78.9504 40.3086L79.3438 41.2279L87.8634 37.5821L87.47 36.6628ZM79.2714 27.0279C64.5045 23.2381 55.8244 15.1317 47.0202 6.90129L46.3373 7.6318C55.1408 15.8616 63.9846 24.1371 79.0228 27.9965L79.2714 27.0279ZM47.0202 6.90129C44.7636 4.79177 42.4959 2.67178 40.1196 0.621438L39.4663 1.37856C41.8251 3.41375 44.0784 5.52011 46.3373 7.6318L47.0202 6.90129ZM109.624 45.7011V46.2727H110.624V45.7011H109.624ZM109.624 46.2727V54.5213H110.624V46.2727H109.624ZM0.893774 40.5444C0.564495 41.202 0.467298 42.1853 0.509065 43.3632C0.551611 44.5631 0.742981 46.0473 1.05789 47.7644C1.68802 51.2004 2.8228 55.6218 4.30081 60.6685C7.25769 70.7649 11.6024 83.4116 16.0786 95.7807C20.5554 108.152 25.1667 120.253 28.6584 129.261C30.4044 133.765 31.8706 137.496 32.9004 140.101C33.4152 141.404 33.821 142.425 34.0981 143.12C34.2367 143.468 34.343 143.734 34.4148 143.914C34.4507 144.004 34.4779 144.072 34.4962 144.117C34.5053 144.14 34.5122 144.157 34.5168 144.169C34.5191 144.175 34.5208 144.179 34.522 144.182C34.5226 144.183 34.523 144.184 34.5233 144.185C34.5236 144.186 34.5238 144.186 34.9878 144C35.4519 143.814 35.4517 143.814 35.4515 143.813C35.4512 143.812 35.4508 143.811 35.4502 143.81C35.449 143.807 35.4473 143.802 35.445 143.797C35.4404 143.785 35.4336 143.768 35.4245 143.746C35.4063 143.7 35.3792 143.632 35.3433 143.543C35.2717 143.364 35.1655 143.098 35.0271 142.75C34.7503 142.055 34.3449 141.035 33.8303 139.733C32.8013 137.13 31.3359 133.401 29.5908 128.899C26.1006 119.896 21.4923 107.802 17.0189 95.4405C12.5448 83.0771 8.20852 70.4536 5.2605 60.3875C3.78605 55.3529 2.66241 50.9699 2.04149 47.5841C1.73087 45.8903 1.54856 44.4593 1.50844 43.3278C1.46754 42.1743 1.57869 41.41 1.78794 40.9921L0.893774 40.5444ZM34.9878 144.5H121.567V143.5H34.9878V144.5ZM121.567 144C122.038 144.169 122.038 144.168 122.038 144.167C122.038 144.167 122.039 144.166 122.039 144.164C122.04 144.161 122.042 144.157 122.044 144.151C122.048 144.14 122.054 144.123 122.062 144.1C122.078 144.054 122.103 143.986 122.135 143.896C122.199 143.717 122.294 143.451 122.418 143.103C122.666 142.408 123.029 141.387 123.491 140.084C124.414 137.479 125.732 133.749 127.309 129.245C130.462 120.238 134.65 108.138 138.793 95.7694C142.935 83.4014 147.032 70.7593 150.001 60.6691C151.485 55.6248 152.689 51.2115 153.476 47.7862C153.869 46.074 154.16 44.6013 154.329 43.416C154.496 42.2482 154.553 41.3053 154.445 40.6829L153.46 40.8536C153.538 41.3067 153.505 42.1113 153.339 43.2749C153.176 44.4211 152.892 45.8636 152.501 47.5623C151.721 50.9588 150.523 55.3499 149.041 60.3869C146.078 70.4592 141.985 83.0874 137.845 95.4518C133.704 107.815 129.517 119.91 126.365 128.915C124.789 133.417 123.471 137.146 122.548 139.75C122.087 141.052 121.724 142.072 121.476 142.767C121.352 143.115 121.257 143.381 121.193 143.56C121.161 143.65 121.137 143.718 121.121 143.763C121.112 143.786 121.106 143.803 121.102 143.814C121.1 143.82 121.099 143.824 121.098 143.827C121.097 143.829 121.097 143.83 121.096 143.83C121.096 143.831 121.096 143.831 121.567 144ZM51.2096 52.3284L47.2072 54.0626L47.6047 54.9801L51.6072 53.2459L51.2096 52.3284ZM110.327 54.0644L106.421 52.3302L106.015 53.2441L109.921 54.9783L110.327 54.0644ZM105.789 52.53L78.7183 97.678L79.576 98.1922L106.647 53.0443L105.789 52.53ZM79.5732 97.6734L51.8344 52.5254L50.9824 53.0489L78.7211 98.1969L79.5732 97.6734ZM106.647 53.0443L110.553 46.5298L109.695 46.0156L105.789 52.53L106.647 53.0443ZM106.421 52.3302L105.249 51.81L104.844 52.724L106.015 53.2441L106.421 52.3302ZM46.9799 46.5345L50.9824 53.0489L51.8344 52.5254L47.832 46.011L46.9799 46.5345ZM52.1554 51.9185L51.2096 52.3284L51.6072 53.2459L52.553 52.8361L52.1554 51.9185ZM34.7368 13.078L10.6177 27.0798L11.1197 27.9446L35.2389 13.9428L34.7368 13.078ZM10.8687 27.5122C10.536 27.1389 10.5359 27.139 10.5358 27.1391C10.5357 27.1392 10.5356 27.1393 10.5354 27.1395C10.5351 27.1397 10.5348 27.14 10.5343 27.1404C10.5334 27.1412 10.5322 27.1423 10.5307 27.1436C10.5277 27.1464 10.5234 27.1502 10.5179 27.1552C10.5069 27.1652 10.491 27.1797 10.4703 27.1987C10.429 27.2368 10.3688 27.2929 10.2911 27.3669C10.1358 27.5149 9.9107 27.7345 9.62794 28.0243C9.06244 28.604 8.26586 29.4648 7.3344 30.5959C5.47183 32.8577 3.06769 36.2029 0.893774 40.5444L1.78794 40.9921C3.92227 36.7297 6.28205 33.4469 8.10635 31.2316C9.01832 30.1242 9.79591 29.2842 10.3437 28.7227C10.6176 28.4419 10.834 28.2309 10.9809 28.0909C11.0544 28.0208 11.1105 27.9686 11.1477 27.9343C11.1664 27.9172 11.1803 27.9045 11.1893 27.8963C11.1938 27.8923 11.1971 27.8893 11.1991 27.8875C11.2001 27.8866 11.2008 27.886 11.2012 27.8856C11.2014 27.8854 11.2015 27.8853 11.2015 27.8853C11.2015 27.8853 11.2015 27.8853 11.2015 27.8853C11.2015 27.8854 11.2014 27.8854 10.8687 27.5122ZM154.445 40.6829C153.686 36.3031 152.04 32.9273 150.583 30.6447C149.854 29.5033 149.172 28.6341 148.669 28.048C148.418 27.7549 148.211 27.5324 148.066 27.3818C147.994 27.3066 147.936 27.2492 147.897 27.2101C147.877 27.1905 147.861 27.1754 147.85 27.1649C147.845 27.1597 147.84 27.1556 147.837 27.1526C147.836 27.1511 147.834 27.1499 147.833 27.149C147.833 27.1485 147.833 27.1481 147.832 27.1478C147.832 27.1477 147.832 27.1475 147.832 27.1474C147.832 27.1472 147.831 27.1471 147.49 27.5122C147.148 27.8772 147.148 27.8771 147.148 27.877C147.148 27.877 147.148 27.8769 147.148 27.8769C147.148 27.8769 147.148 27.8769 147.148 27.877C147.148 27.8773 147.149 27.8778 147.15 27.8786C147.151 27.8801 147.154 27.8828 147.158 27.8866C147.166 27.8943 147.178 27.9064 147.195 27.923C147.229 27.9561 147.28 28.0072 147.346 28.0759C147.479 28.2134 147.672 28.4215 147.91 28.699C148.386 29.2541 149.04 30.0857 149.74 31.1828C151.141 33.3772 152.727 36.6295 153.46 40.8536L154.445 40.6829ZM147.727 27.0722L121.804 13.0705L121.329 13.9504L147.252 27.9521L147.727 27.0722Z" fill="#2B2024"/>
<path d="M42.8076 169.432C42.6253 168.794 42.443 168.247 42.2607 167.791C42.0785 167.312 41.8848 166.891 41.6797 166.526C41.4974 166.139 41.2809 165.797 41.0303 165.501C40.8024 165.205 40.529 164.897 40.21 164.578C39.4352 163.781 38.5465 163.188 37.5439 162.801C36.5641 162.391 35.516 162.186 34.3994 162.186C32.9867 162.186 31.6992 162.459 30.5371 163.006C29.3978 163.553 28.418 164.339 27.5977 165.364C26.8001 166.367 26.1849 167.586 25.752 169.021C25.319 170.457 25.1025 172.052 25.1025 173.807C25.1025 176.085 25.4102 178.079 26.0254 179.788C26.6406 181.497 27.5179 182.83 28.6572 183.787C30.3662 185.154 32.4056 185.838 34.7754 185.838C36.3932 185.838 37.8857 185.53 39.2529 184.915C40.6201 184.3 42.0329 183.297 43.4912 181.907L44.1748 182.591C42.9899 184.163 41.4746 185.382 39.6289 186.248C37.806 187.114 35.778 187.547 33.5449 187.547C31.6081 187.547 29.8421 187.228 28.2471 186.59C26.652 185.952 25.2848 185.063 24.1455 183.924C23.0062 182.762 22.1175 181.372 21.4795 179.754C20.8643 178.136 20.5566 176.336 20.5566 174.354C20.5566 172.098 20.944 170.07 21.7188 168.27C22.4935 166.447 23.6328 164.92 25.1367 163.689C26.3216 162.732 27.6546 161.992 29.1357 161.468C30.6169 160.921 32.1094 160.647 33.6133 160.647C35.5501 160.647 37.4642 160.966 39.3555 161.604C39.9935 161.832 40.5062 161.946 40.8936 161.946C41.2809 161.946 41.6113 161.832 41.8848 161.604C42.181 161.377 42.3861 161.058 42.5 160.647H43.3203L43.6963 169.432H42.8076ZM59.8633 182.898C59.8633 183.764 59.943 184.368 60.1025 184.71C60.262 185.029 60.5697 185.188 61.0254 185.188C61.5495 185.188 62.1191 184.949 62.7344 184.471V185.462C62.0736 186.191 61.4925 186.692 60.9912 186.966C60.4899 187.239 59.9089 187.376 59.248 187.376C58.4505 187.376 57.8581 187.16 57.4707 186.727C57.1061 186.271 56.8783 185.519 56.7871 184.471C55.6022 185.496 54.5654 186.237 53.6768 186.692C52.7881 187.148 51.9222 187.376 51.0791 187.376C49.8486 187.376 48.846 186.989 48.0713 186.214C47.3193 185.439 46.9434 184.437 46.9434 183.206C46.9434 182.591 47.0573 181.976 47.2852 181.36C47.5358 180.722 47.889 180.21 48.3447 179.822C48.7549 179.458 49.1309 179.15 49.4727 178.899C49.8372 178.626 50.3044 178.353 50.874 178.079C51.4437 177.783 52.1842 177.452 53.0957 177.088C54.0072 176.723 55.2148 176.233 56.7188 175.618V173.123C56.7188 172.052 56.4567 171.243 55.9326 170.696C55.4313 170.149 54.7021 169.876 53.7451 169.876C52.9476 169.876 52.2754 170.07 51.7285 170.457C51.2044 170.822 50.9424 171.266 50.9424 171.79C50.9424 171.995 50.9652 172.257 51.0107 172.576C51.0791 172.895 51.1133 173.157 51.1133 173.362C51.1133 173.818 50.931 174.205 50.5664 174.524C50.2246 174.843 49.8258 175.003 49.3701 175.003C48.9144 175.003 48.5156 174.843 48.1738 174.524C47.8548 174.183 47.6953 173.784 47.6953 173.328C47.6953 172.827 47.832 172.314 48.1055 171.79C48.4017 171.266 48.8005 170.799 49.3018 170.389C49.8258 169.933 50.5208 169.58 51.3867 169.329C52.2754 169.078 53.2324 168.953 54.2578 168.953C55.4427 168.953 56.4339 169.158 57.2314 169.568C58.0518 169.956 58.6784 170.503 59.1113 171.209C59.3848 171.665 59.5785 172.2 59.6924 172.815C59.8063 173.408 59.8633 174.217 59.8633 175.242V182.898ZM56.7188 176.575C55.5339 177.008 54.5199 177.43 53.6768 177.84C52.8564 178.227 52.1842 178.637 51.6602 179.07C51.1589 179.48 50.7943 179.925 50.5664 180.403C50.3385 180.882 50.2246 181.406 50.2246 181.976V182.146C50.2246 182.557 50.293 182.955 50.4297 183.343C50.5664 183.707 50.7487 184.026 50.9766 184.3C51.2272 184.573 51.512 184.79 51.8311 184.949C52.1501 185.109 52.4805 185.188 52.8223 185.188C53.2324 185.188 53.6882 185.109 54.1895 184.949C54.7135 184.767 55.2035 184.55 55.6592 184.3C56.1149 184.049 56.3997 183.787 56.5137 183.514C56.6504 183.24 56.7188 182.807 56.7188 182.215V176.575ZM63.1104 171.209C63.68 171.004 64.2041 170.822 64.6826 170.662C65.1611 170.48 65.6169 170.309 66.0498 170.149C66.5055 169.967 66.9499 169.796 67.3828 169.637C67.8385 169.454 68.3285 169.261 68.8525 169.056L69.0918 169.124V172.713C69.5703 172.007 70.0033 171.425 70.3906 170.97C70.778 170.491 71.154 170.115 71.5186 169.842C71.8831 169.546 72.2363 169.34 72.5781 169.227C72.9427 169.113 73.3301 169.056 73.7402 169.056C74.401 169.056 74.9251 169.249 75.3125 169.637C75.6999 170.001 75.8936 170.491 75.8936 171.106C75.8936 171.676 75.7568 172.12 75.4834 172.439C75.21 172.736 74.8454 172.884 74.3896 172.884C74.139 172.884 73.8883 172.838 73.6377 172.747C73.4098 172.633 73.1364 172.417 72.8174 172.098C72.6123 171.915 72.4186 171.779 72.2363 171.688C72.054 171.596 71.9059 171.551 71.792 171.551C71.5186 171.551 71.2223 171.665 70.9033 171.893C70.6071 172.098 70.3223 172.36 70.0488 172.679C69.7754 172.998 69.5475 173.34 69.3652 173.704C69.1829 174.069 69.0918 174.41 69.0918 174.729V183.514C69.0918 184.061 69.1374 184.516 69.2285 184.881C69.3197 185.245 69.4906 185.542 69.7412 185.77C69.9919 185.975 70.3337 186.134 70.7666 186.248C71.1995 186.362 71.7464 186.43 72.4072 186.453V187H63.0078V186.453C63.623 186.339 64.113 186.225 64.4775 186.111C64.8649 185.975 65.1497 185.815 65.332 185.633C65.5371 185.451 65.6624 185.211 65.708 184.915C65.7764 184.596 65.8105 184.197 65.8105 183.719V173.978C65.8105 173.112 65.708 172.508 65.5029 172.166C65.2979 171.801 64.9561 171.619 64.4775 171.619C64.2269 171.619 63.999 171.631 63.7939 171.653C63.6117 171.676 63.3838 171.722 63.1104 171.79V171.209ZM89.1211 187.273V184.744C88.4603 185.701 87.7311 186.385 86.9336 186.795C86.1589 187.182 85.2246 187.376 84.1309 187.376C83.0371 187.376 82.0459 187.182 81.1572 186.795C80.2686 186.385 79.5052 185.815 78.8672 185.086C78.252 184.334 77.762 183.445 77.3975 182.42C77.0557 181.395 76.8848 180.255 76.8848 179.002C76.8848 177.612 77.1012 176.313 77.5342 175.105C77.9671 173.898 78.5482 172.838 79.2773 171.927C80.0065 171.015 80.861 170.298 81.8408 169.773C82.8434 169.249 83.903 168.987 85.0195 168.987C85.8171 168.987 86.512 169.113 87.1045 169.363C87.6969 169.591 88.3691 170.024 89.1211 170.662V164.646C89.1211 163.849 88.9958 163.313 88.7451 163.04C88.5173 162.767 88.0387 162.63 87.3096 162.63C87.1501 162.63 87.002 162.641 86.8652 162.664C86.7513 162.664 86.6146 162.675 86.4551 162.698V162.015C87.0703 161.855 87.6286 161.718 88.1299 161.604C88.6312 161.468 89.0983 161.342 89.5312 161.229C89.987 161.092 90.4199 160.955 90.8301 160.818C91.263 160.682 91.7188 160.522 92.1973 160.34L92.4023 160.442V182.557C92.4023 183.468 92.5049 184.072 92.71 184.368C92.9378 184.642 93.4049 184.778 94.1113 184.778C94.2253 184.778 94.362 184.778 94.5215 184.778C94.7038 184.756 94.8747 184.744 95.0342 184.744V185.359L89.292 187.376L89.1211 187.273ZM89.1211 173.978C89.1211 173.476 89.0072 172.998 88.7793 172.542C88.5742 172.063 88.2894 171.642 87.9248 171.277C87.5602 170.913 87.1273 170.628 86.626 170.423C86.1475 170.195 85.6462 170.081 85.1221 170.081C84.3929 170.081 83.7207 170.263 83.1055 170.628C82.513 170.97 82.0003 171.471 81.5674 172.132C81.1572 172.77 80.8382 173.545 80.6104 174.456C80.3825 175.345 80.2686 176.336 80.2686 177.43C80.2686 178.637 80.3939 179.731 80.6445 180.711C80.8952 181.691 81.2484 182.522 81.7041 183.206C82.1826 183.89 82.7523 184.425 83.4131 184.812C84.0739 185.177 84.8145 185.359 85.6348 185.359C86.8652 185.359 87.8223 184.949 88.5059 184.129C88.916 183.673 89.1211 183.309 89.1211 183.035V173.978ZM100.298 183.138C100.845 183.138 101.335 183.354 101.768 183.787C102.223 184.22 102.451 184.733 102.451 185.325C102.451 185.895 102.223 186.396 101.768 186.829C101.335 187.239 100.822 187.444 100.229 187.444C99.637 187.444 99.1243 187.239 98.6914 186.829C98.2812 186.396 98.0762 185.883 98.0762 185.291C98.0762 184.676 98.2926 184.163 98.7256 183.753C99.1585 183.343 99.6826 183.138 100.298 183.138ZM112.09 169.158V183.035C112.09 183.742 112.113 184.311 112.158 184.744C112.227 185.154 112.363 185.485 112.568 185.735C112.773 185.963 113.058 186.123 113.423 186.214C113.81 186.305 114.334 186.385 114.995 186.453V187H105.732V186.453C106.416 186.408 106.951 186.339 107.339 186.248C107.749 186.134 108.057 185.963 108.262 185.735C108.49 185.485 108.638 185.154 108.706 184.744C108.774 184.311 108.809 183.742 108.809 183.035V173.978C108.809 173.112 108.706 172.508 108.501 172.166C108.319 171.801 108 171.619 107.544 171.619C107.362 171.619 107.145 171.631 106.895 171.653C106.667 171.676 106.427 171.71 106.177 171.756L105.903 171.79V171.209L111.919 169.056L112.09 169.158ZM110.142 160.34C110.688 160.34 111.156 160.545 111.543 160.955C111.93 161.342 112.124 161.81 112.124 162.356C112.124 162.926 111.93 163.405 111.543 163.792C111.178 164.157 110.7 164.339 110.107 164.339C109.538 164.339 109.071 164.157 108.706 163.792C108.341 163.405 108.159 162.926 108.159 162.356C108.159 161.81 108.353 161.342 108.74 160.955C109.128 160.545 109.595 160.34 110.142 160.34ZM125.728 169.056C126.981 169.056 128.132 169.272 129.18 169.705C130.228 170.138 131.128 170.753 131.88 171.551C132.655 172.326 133.258 173.248 133.691 174.319C134.124 175.39 134.341 176.575 134.341 177.874C134.341 179.241 134.113 180.506 133.657 181.668C133.224 182.807 132.62 183.81 131.846 184.676C131.071 185.519 130.148 186.18 129.077 186.658C128.029 187.137 126.89 187.376 125.659 187.376C124.429 187.376 123.289 187.148 122.241 186.692C121.193 186.237 120.293 185.599 119.541 184.778C118.789 183.958 118.197 182.99 117.764 181.873C117.331 180.757 117.114 179.537 117.114 178.216C117.114 176.871 117.319 175.641 117.729 174.524C118.162 173.385 118.755 172.417 119.507 171.619C120.259 170.799 121.159 170.172 122.207 169.739C123.278 169.284 124.451 169.056 125.728 169.056ZM125.146 170.149C123.779 170.149 122.686 170.708 121.865 171.824C121.045 172.941 120.635 174.422 120.635 176.268C120.635 177.658 120.783 179.013 121.079 180.335C121.375 181.634 121.797 182.796 122.344 183.821C122.754 184.619 123.301 185.234 123.984 185.667C124.668 186.1 125.409 186.316 126.206 186.316C127.642 186.316 128.758 185.69 129.556 184.437C130.376 183.16 130.786 181.417 130.786 179.207C130.786 177.544 130.547 175.994 130.068 174.559C129.59 173.123 128.94 172.041 128.12 171.312C127.687 170.901 127.231 170.605 126.753 170.423C126.274 170.241 125.739 170.149 125.146 170.149Z" fill="black"/>
</svg>
